<svg width="665" height="388" viewBox="0 0 665 388" fill="none" xmlns="http://www.w3.org/2000/svg">
<path d="M194.062 62.2833C183.188 55.4685 170.986 50.6786 157.788 48.4482C99.0669 38.5246 44.0138 83.2011 34.2421 147.337C33.7507 150.562 33.3826 153.779 33.1343 156.98C18.4295 169.556 7.83176 187.995 4.55065 209.53C-2.27566 254.334 24.9561 296.778 66.1886 303.746C75.6711 305.348 85.0084 304.926 93.8498 302.782C100.143 334.624 123.429 360.52 154.839 365.828C172.974 368.893 190.578 364.552 205.198 354.921C219.862 369.421 238.439 379.553 259.571 383.124C304.894 390.784 348.032 365.916 369.851 324.679C385.553 344.507 407.486 358.571 433.203 362.917C470.964 369.298 507.208 353.102 530.87 323.671C532.71 324.092 534.571 324.462 536.452 324.78C595.173 334.703 650.226 290.027 659.998 225.891C667.77 174.879 644.679 126.164 605.366 103.395C596.83 75.6993 575.05 54.0143 546.609 49.2079C538.713 47.8736 530.918 47.9431 523.426 49.2418C507.552 26.2012 483.838 9.657 455.545 4.87561C415.013 -1.97399 376.229 17.1891 352.877 50.8092C337.707 34.3267 317.811 22.756 294.917 18.887C255.417 12.2116 217.576 30.2425 194.062 62.2833Z" fill="white" stroke="#D7E7CF" stroke-width="7"/>
</svg>
