<svg width="572" height="330" viewBox="0 0 572 330" fill="none" xmlns="http://www.w3.org/2000/svg">
<ellipse cx="85.1241" cy="83.3055" rx="85.1241" ry="83.3055" transform="matrix(0.989116 -0.147139 0.170551 0.985349 103 48.05)" fill="#86D7DA"/>
<ellipse cx="85.1241" cy="83.3055" rx="85.1241" ry="83.3055" transform="matrix(0.989116 -0.147139 0.170551 0.985349 235.27 58.2062)" fill="#86D7DA"/>
<ellipse cx="85.1241" cy="83.3055" rx="85.1241" ry="83.3055" transform="matrix(0.989116 -0.147139 0.170551 0.985349 7 110.759)" fill="#86D7DA"/>
<ellipse cx="85.1241" cy="83.3055" rx="85.1241" ry="83.3055" transform="matrix(0.989116 -0.147139 0.170551 0.985349 348.189 79.6335)" fill="#86D7DA"/>
<ellipse cx="85.1241" cy="83.3055" rx="85.1241" ry="83.3055" transform="matrix(0.989116 -0.147139 0.170551 0.985349 235 153.05)" fill="#86D7DA"/>
<ellipse cx="58.8503" cy="57.593" rx="58.8503" ry="57.593" transform="matrix(0.989116 -0.147139 0.170551 0.985349 356 187.318)" fill="#86D7DA"/>
<ellipse cx="58.8503" cy="57.593" rx="58.8503" ry="57.593" transform="matrix(0.989116 -0.147139 0.170551 0.985349 54 76.3184)" fill="#86D7DA"/>
<ellipse cx="58.8503" cy="57.593" rx="58.8503" ry="57.593" transform="matrix(0.989116 -0.147139 0.170551 0.985349 429 142.318)" fill="#86D7DA"/>
<ellipse cx="85.1241" cy="83.3055" rx="85.1241" ry="83.3055" transform="matrix(0.989116 -0.147139 0.170551 0.985349 92.0215 138.403)" fill="#86D7DA"/>
<ellipse cx="85.1241" cy="83.3055" rx="85.1241" ry="83.3055" transform="matrix(0.989116 -0.147139 0.170551 0.985349 102 37.05)" fill="#FFFED7"/>
<ellipse cx="85.1241" cy="83.3055" rx="85.1241" ry="83.3055" transform="matrix(0.989116 -0.147139 0.170551 0.985349 234.27 47.2062)" fill="#FFFED7"/>
<ellipse cx="85.1241" cy="83.3055" rx="85.1241" ry="83.3055" transform="matrix(0.989116 -0.147139 0.170551 0.985349 6 99.7589)" fill="#FFFED7"/>
<ellipse cx="85.1241" cy="83.3055" rx="85.1241" ry="83.3055" transform="matrix(0.989116 -0.147139 0.170551 0.985349 347.189 68.6335)" fill="#FFFED7"/>
<ellipse cx="85.1241" cy="83.3055" rx="85.1241" ry="83.3055" transform="matrix(0.989116 -0.147139 0.170551 0.985349 234 142.05)" fill="#FFFED7"/>
<ellipse cx="58.8503" cy="57.593" rx="58.8503" ry="57.593" transform="matrix(0.989116 -0.147139 0.170551 0.985349 355 176.318)" fill="#FFFED7"/>
<ellipse cx="58.8503" cy="57.593" rx="58.8503" ry="57.593" transform="matrix(0.989116 -0.147139 0.170551 0.985349 53 65.3184)" fill="#FFFED7"/>
<ellipse cx="58.8503" cy="57.593" rx="58.8503" ry="57.593" transform="matrix(0.989116 -0.147139 0.170551 0.985349 428 131.318)" fill="#FFFED7"/>
<ellipse cx="85.1241" cy="83.3055" rx="85.1241" ry="83.3055" transform="matrix(0.989116 -0.147139 0.170551 0.985349 91.0215 127.403)" fill="#FFFED7"/>
</svg>
