<svg width="277" height="236" viewBox="0 0 277 236" fill="none" xmlns="http://www.w3.org/2000/svg">
<path d="M156.967 72.506C156.967 112.55 121.828 145.012 78.4833 145.012C35.1382 145.012 0 112.55 0 72.506C0 32.4621 35.1382 0 78.4833 0C121.828 0 156.967 32.4621 156.967 72.506Z" fill="#DE0000"/>
<path d="M277 72.506C277 112.55 241.862 145.012 198.517 145.012C155.172 145.012 120.033 112.55 120.033 72.506C120.033 32.4621 155.172 0 198.517 0C241.862 0 277 32.4621 277 72.506Z" fill="#DE0000"/>
<path d="M136.963 236L18.4678 118.711L258.533 119.422L136.963 236Z" fill="#DE0000"/>
</svg>
