<svg width="2027" height="1212" viewBox="0 0 2027 1212" fill="none" xmlns="http://www.w3.org/2000/svg">
<path d="M177 426.929C78.9999 439.429 18.1665 495.262 4.99988 546.429C4.99988 546.429 1796.65 582.662 1789 525C1784.82 493.505 1765.86 339.056 1687 239.5C1607 138.5 1534.62 76.3945 1501 49.4995C1426.92 -9.76779 1391.5 -0.141578 1325.5 4.42915C1259.5 8.99987 1140 50.9292 1039 154.929C938 258.929 911.5 312.929 878.5 358.429C845.5 403.929 758.5 414.626 665 420.929C571.5 427.232 513 422.929 413.5 420.929C314 418.929 229.41 420.244 177 426.929Z" fill="#B4D6A7"/>
<path d="M0.596428 593C-8.96193 510.071 97.8019 434 217.711 434H1809.89C1929.79 434 2027 505.187 2027 593V1053C2027 1140.81 1929.79 1212 1809.89 1212H217.711C97.802 1212 0.596428 1140.81 0.596428 1053V593Z" fill="#B4D6A7"/>
</svg>
